<?xml version="1.0" encoding="UTF-8" standalone="no"?>
<svg width="710px" height="250px" viewBox="0 0 710 250" version="1.1" xmlns="http://www.w3.org/2000/svg" xmlns:xlink="http://www.w3.org/1999/xlink" xmlns:sketch="http://www.bohemiancoding.com/sketch/ns">
    <!-- Generator: Sketch 3.3 (11970) - http://www.bohemiancoding.com/sketch -->
    <title>logo-type</title>
    <desc>Created with Sketch.</desc>
    <defs></defs>
    <g id="Page-1" stroke="none" stroke-width="1" fill="none" fill-rule="evenodd" sketch:type="MSPage">
        <path d="M29.0614978,168.927937 C29.8770929,173.102565 31.2132767,177.011939 32.9816315,180.482531 C39.5071735,179.561989 48.1051529,176.274003 58.5169282,170.968938 C57.9632805,166.879422 56.7122086,162.7081 54.5901828,158.54339 C44.8593022,161.752876 36.3497406,165.214392 29.0614978,168.927937 L29.0614978,168.927937 Z M71.0854711,197.352048 C64.5111821,203.324783 58.8111529,209.726384 54.509278,216.727074 C56.7982216,219.932412 59.5160303,222.263491 63.0130693,223.978952 C72.4456376,215.894108 78.2340847,209.666037 80.6403576,205.37985 C78.8720028,201.909258 75.5418817,199.234426 71.0854711,197.352048 L71.0854711,197.352048 Z M18.3513506,123.455731 C18.6430509,127.460135 19.1966987,131.549651 20.3593529,135.547444 C29.8580392,136.172138 39.772367,134.180665 49.9288068,129.661443 C50.2461129,125.565315 49.8659948,121.387381 48.9652879,117.474701 C37.1256051,118.261384 26.94933,120.167745 18.3513506,123.455731 L18.3513506,123.455731 Z M57.0178544,88.2349354 C54.9354993,89.2959483 53.1150916,90.442073 51.4682135,91.49978 C53.8819396,99.6688943 58.758139,110.954929 66.0968116,125.357885 C67.6684956,125.868556 69.5806269,125.331438 72.1835708,124.005172 C74.7865146,122.678906 76.6069223,121.532781 77.7299058,120.30485 C72.8437888,107.712385 67.9675894,96.4263495 62.9277781,86.5351629 C60.8388113,86.725222 58.9266799,87.2623402 57.0178544,88.2349354 L57.0178544,88.2349354 Z M89.7852534,113.506602 C88.1978814,122.402893 87.7401046,130.942208 88.5003409,139.298076 C92.3378272,139.965747 96.6041786,139.759158 101.299395,138.67831 C102.621514,129.26143 103.079291,120.722115 102.32236,112.801724 C98.4848741,112.134053 94.3069404,112.514171 89.7852534,113.506602 L89.7852534,113.506602 Z M73.2808888,84.9758611 C73.6444774,86.9764102 74.2667075,88.6265942 75.1508849,90.3618901 C76.2118978,92.4442452 77.2696048,94.0911233 78.4975355,95.2141068 C98.9054446,87.2201452 119.218324,78.1817002 139.524592,68.2723013 L145.271745,79.5517246 C147.190488,79.8855602 149.276149,79.2600242 151.705564,78.0221758 C153.787919,76.9611629 155.608326,75.8150382 157.078369,74.410272 C154.586143,67.3740589 151.304769,59.6470334 146.972299,51.1440835 C121.099861,62.1409425 96.7106891,73.4749429 73.2808888,84.9758611 L73.2808888,84.9758611 Z M91.8610565,157.476547 C92.4865924,159.562208 93.4591876,161.471034 94.343365,163.20633 C95.2275424,164.941625 96.4620849,166.935563 98.3056339,168.837776 C108.553797,164.92756 118.972184,160.49345 129.213736,155.71228 C130.097914,157.447576 130.982091,159.182872 132.039798,160.82975 C123.858302,173.085916 116.459341,185.16194 110.101558,196.707458 C112.911091,199.647543 116.323018,201.624951 120.16381,202.728099 C126.541428,193.795443 133.000852,184.165362 139.542082,173.837857 C143.425851,180.602205 147.571567,187.451665 151.890813,194.212707 C148.073162,196.157898 144.170399,198.365035 140.270943,201.00765 C141.508791,203.437064 143.182116,205.863173 145.552866,208.371087 C148.247533,207.653827 152.06849,206.144114 156.927319,203.668417 C162.306736,200.927467 165.944245,198.199741 167.754735,195.747185 C159.45008,180.306358 150.798364,165.042366 141.97312,149.866791 C150.826435,145.792963 159.764861,141.457188 168.7884,136.859466 C168.509923,134.596969 167.79597,132.337779 166.646539,130.081894 L163.905589,124.702477 C154.007791,128.871334 144.109992,133.040192 134.474141,137.294161 C132.093474,133.479816 129.797919,129.403523 127.240416,125.242119 C123.249235,127.275727 119.60842,129.567977 116.491499,132.03045 C118.348272,135.674571 120.205044,139.318693 122.146929,142.700867 C111.905377,147.482037 101.925773,152.348318 91.8610565,157.476547 L91.8610565,157.476547 Z M160.846551,157.736752 C160.781275,160.611561 161.246505,164.527547 161.980294,169.399599 C169.645349,169.428511 178.865558,167.790709 189.290557,164.227552 C189.083968,159.961201 188.356791,155.960103 187.112331,152.659734 C177.88551,153.426582 169.100777,155.061078 160.846551,157.736752 L160.846551,157.736752 Z M127.706427,94.8405407 C126.861921,98.3309679 126.541309,101.991619 126.482644,105.737381 C134.953376,108.63449 143.676138,110.31028 152.997989,110.587915 C154.36639,107.267712 155.122479,103.603755 154.915891,99.3374036 C145.400675,96.5353245 136.330854,95.0363702 127.706427,94.8405407 L127.706427,94.8405407 Z" id="深" fill="#FFFFFF" sketch:type="MSShapeGroup"></path>
        <path d="M297.193515,65.6933545 C292.519352,66.2776249 288.234702,66.8618953 284.339566,67.4461658 C284.534322,71.7308156 285.118593,76.2102222 285.89762,80.4948721 C265.448155,80.6896289 246.167231,80.8843857 228.249604,81.0791425 C227.470577,82.8319538 227.27582,84.7795219 227.27582,87.1166036 C227.27582,89.843199 227.470577,91.7907671 228.054847,93.3488216 C233.313281,94.1278488 265.253398,94.3226056 323.875198,94.3226056 C341.403311,94.3226056 351.141152,94.1278488 353.08872,93.3488216 C353.478233,92.5697943 353.67299,90.6222262 353.67299,87.5061173 C353.67299,84.7795219 353.478233,82.8319538 353.08872,81.6634129 C345.687961,80.8843857 335.95012,80.3001153 323.875198,80.3001153 L299.92011,80.3001153 C299.141083,75.431195 298.362056,70.5622747 297.193515,65.6933545 L297.193515,65.6933545 Z M262.137289,119.446234 C243.440635,128.210291 226.302036,137.169104 210.721491,146.517431 C211.890032,150.607324 214.032357,154.112946 216.953709,156.839542 C233.702795,149.63354 250.841394,141.258997 268.564264,131.91067 C267.006209,127.62602 264.863884,123.34137 262.137289,119.446234 L262.137289,119.446234 Z M246.556744,152.749649 C242.661608,153.139162 238.766472,153.91819 235.260849,155.086731 C236.818904,169.498735 240.12977,183.521225 244.99869,197.154202 C248.893826,197.154202 252.983719,196.569931 256.878855,195.011877 C254.931287,180.599873 251.425665,166.577382 246.556744,152.749649 L246.556744,152.749649 Z M305.373301,136.000563 C316.669196,140.285213 328.938875,144.180349 342.182338,147.880729 C335.560607,163.461273 328.938875,179.236575 322.122387,195.206634 C310.631735,190.921984 298.946326,186.637334 287.260918,182.352684 C285.31335,185.858307 283.755295,189.9482 282.781511,194.622363 C293.882649,199.68604 305.178544,204.165447 316.474439,208.25534 C314.721628,212.150476 312.968817,216.240369 311.410762,220.330262 C315.111142,223.056857 319.201035,224.809669 323.875198,225.97821 C326.21228,222.27783 328.549362,217.99318 330.49693,213.319017 C338.676716,216.240369 346.856502,218.966964 355.425801,221.498803 C357.373369,217.798424 358.736667,214.098044 359.905208,210.397665 C352.114936,207.086799 344.129906,203.97069 335.95012,200.659824 C337.897688,196.180418 340.23477,190.921984 342.766609,184.884523 C348.998827,170.472519 355.036288,155.476244 360.489478,139.895699 C343.740393,134.442509 328.159848,129.573588 313.553087,125.288939 C315.305898,122.951857 317.05871,120.420018 318.616764,118.082937 C316.474439,115.745855 313.553087,113.408773 309.852708,111.266448 C295.05119,124.509911 282.781511,138.921915 272.848914,154.307703 C275.185995,157.034299 278.496861,159.566137 283.171025,161.513705 C291.545568,152.360135 298.946326,143.790836 305.373301,136.000563 L305.373301,136.000563 Z M303.62049,155.671001 C301.672922,158.78711 300.114867,162.487489 298.556813,166.966896 C304.010003,170.862032 310.826492,173.783384 319.006278,175.925709 C321.148603,172.420087 322.706657,168.914464 323.875198,165.214085 C317.253467,161.708462 310.436978,158.592353 303.62049,155.671001 L303.62049,155.671001 Z" id="夜" fill="#FFFFFF" sketch:type="MSShapeGroup"></path>
        <path d="M508.32674,38.6457638 C470.893646,40.7569837 436.09913,45.4552449 403.943192,52.7405475 C403.28166,56.318259 404.280919,60.4893062 406.765925,65.1683133 C435.212052,61.4907853 463.743555,57.6382111 492.620856,53.5209202 C500.11882,71.9126242 508.824928,89.1600855 518.653806,105.43835 C524.041588,104.165784 527.943623,102.385259 530.539254,100.617617 C522.708377,83.7970347 514.881794,67.4119205 507.059506,51.4622747 C508.451287,51.2743442 510.018114,51.1717895 511.670317,50.8941886 C511.541993,46.714552 510.457358,42.718551 508.32674,38.6457638 L508.32674,38.6457638 Z M492.86995,78.778081 C489.198273,77.4206582 485.35155,75.9778596 480.979689,74.2789337 C478.93067,78.480044 477.321415,83.1123279 475.972581,87.6549412 C465.99065,82.3530542 455.658626,76.8804157 444.716087,71.3266962 C443.162144,72.7356557 441.958294,74.3153668 441.189912,75.8907832 C440.165403,77.9913383 439.401316,80.002223 439.243448,81.6587204 C474.099128,100.825839 495.296905,112.89818 503.00753,117.525651 C496.322452,128.566449 490.414345,138.902768 485.018493,148.188809 C471.288098,142.575483 457.818125,136.872485 444.173106,131.084112 L442.038712,135.460268 C441.193544,138.081668 441.035676,139.738165 441.215017,140.259009 C445.074625,143.008213 450.155261,145.919578 456.631973,149.078481 C470.285581,155.737791 482.090467,160.411985 492.217382,162.750969 C501.305866,148.11528 510.552217,131.823094 519.956435,113.87441 C510.05129,107.52654 499.185537,100.926838 487.534224,94.1606784 C489.489277,89.2636778 491.35466,84.1062551 492.86995,78.778081 L492.86995,78.778081 Z M422.667147,105.426878 C434.241674,113.23902 446.593172,120.346683 459.546595,126.664489 C461.954296,123.505067 464.011904,120.174893 465.634043,116.849014 C451.608868,107.841612 438.817607,100.302776 427.435305,94.3178827 C428.118312,92.9175126 428.626271,91.4317667 429.394653,89.8563504 C428.165035,88.8232517 426.585324,87.6194015 424.484769,86.5948923 C423.259445,85.997262 421.513277,85.5789726 419.24197,84.9045559 C417.858779,85.963423 411.78851,97.520771 401.031164,119.5766 C391.477667,140.052718 386.116173,152.822506 384.425836,158.065304 C386.799698,160.306547 390.744681,162.880705 396.521207,165.698105 C404.223243,169.454639 410.080851,171.661524 414.008655,172.493808 C415.212505,170.914097 416.155933,169.424057 417.009691,167.673594 C417.607321,166.44827 418.286032,164.612432 419.220871,162.251455 C414.849009,160.552529 410.82724,159.024355 407.155563,157.666932 C405.055008,156.642423 402.689736,155.272116 400.324464,153.901809 C406.300768,141.64857 413.71987,125.548609 422.667147,105.426878 L422.667147,105.426878 Z M477.445818,166.380736 C471.810498,169.049378 466.089803,171.893065 460.719201,174.907504 C456.667368,170.331052 452.269738,166.019316 447.872108,161.707581 C444.584881,164.004656 441.647747,166.472482 439.065001,169.546529 C449.58118,184.859892 459.892249,197.039601 470.173255,206.171032 C473.810574,204.044708 476.662332,201.751928 479.078622,199.463442 C476.158148,194.78873 473.152299,190.289064 469.710981,185.793693 C474.735786,183.04397 479.67092,180.033826 484.341338,176.677884 C482.385766,172.690473 479.99902,169.142824 477.445818,166.380736 L477.445818,166.380736 Z" id="食" fill="#FFFFFF" sketch:type="MSShapeGroup"></path>
        <path d="M658.082879,71.9255724 C650.09785,74.6521678 642.307577,78.1577903 634.712062,82.8319538 C636.075359,86.72709 638.217684,90.4274694 640.944279,93.933092 C649.124066,92.3750375 656.914338,88.8694149 664.12034,83.610981 C662.951799,79.7158448 660.809474,75.8207086 658.082879,71.9255724 L658.082879,71.9255724 Z M612.315028,67.251409 C610.36746,67.251409 608.419892,67.6409226 606.667081,68.0304362 C605.109026,74.6521678 604.524756,81.4686561 604.524756,88.8694149 C604.524756,93.5435784 604.719513,97.8282282 605.49854,101.723364 C594.202645,101.528608 582.90675,101.333851 571.610855,101.333851 C571.221341,103.281419 571.221341,105.228987 571.221341,106.981798 C571.221341,109.31888 571.416098,111.461205 572.000369,113.214016 C603.550972,115.161584 635.101575,115.940612 666.262665,115.940612 C667.041692,126.846993 667.625963,134.832022 668.40499,139.895699 C671.131585,140.285213 673.27391,140.285213 674.831964,140.285213 C677.169046,140.285213 679.116614,140.090456 680.479912,139.506186 C680.479912,128.210291 679.895642,116.524882 679.116614,104.060446 C659.25142,103.086662 638.996711,102.307635 618.547246,101.918121 C618.93676,98.6072555 619.131517,94.3226056 619.131517,88.8694149 C619.131517,83.2214674 618.742003,76.2102222 617.962976,68.0304362 C616.404921,67.6409226 614.457353,67.251409 612.315028,67.251409 L612.315028,67.251409 Z M575.505991,74.8469246 C570.442314,75.6259518 566.352421,76.7944927 562.846798,78.3525472 C563.431069,85.9480628 565.573394,92.1802807 569.46853,97.2439578 C573.75318,96.8544442 578.03783,95.2963897 582.517236,92.7645511 C580.959182,84.9742787 578.6221,78.9368176 575.505991,74.8469246 L575.505991,74.8469246 Z M598.682052,125.483695 C598.487295,127.431263 598.487295,129.184075 598.487295,131.131643 C598.487295,134.052995 598.682052,136.000563 599.461079,137.169104 C603.940485,137.948131 615.23638,138.921915 633.154007,140.090456 C633.348764,140.47997 633.543521,140.674727 633.543521,140.869483 C633.543521,146.322674 633.154007,150.412567 632.569737,153.139162 C618.547246,153.139162 604.329999,152.749649 590.112752,151.970622 C589.917995,138.532402 589.917995,129.963102 589.917995,126.457479 C587.77567,125.873209 585.633345,125.483695 583.685777,125.483695 C581.153939,125.483695 579.011614,125.873209 577.453559,126.457479 C576.285018,133.858238 575.895505,138.921915 575.895505,141.648511 C575.895505,151.775865 576.674532,158.981867 578.6221,162.877003 C589.528481,164.824571 601.019133,165.798355 613.483569,165.798355 C628.869357,165.798355 639.775739,165.214085 646.39747,163.65603 C646.981741,158.78711 647.371254,151.191594 647.371254,140.869483 C647.371254,134.637265 646.786984,130.547372 645.618443,128.599804 C630.232655,126.846993 614.65211,125.873209 598.682052,125.483695 L598.682052,125.483695 Z M553.693228,106.397528 C551.16139,106.397528 548.824308,106.592285 546.87674,106.787042 C546.097713,115.356341 545.708199,128.210291 545.708199,144.959376 C546.87674,146.127917 549.019065,146.517431 552.135174,146.517431 C555.251283,146.517431 557.588365,146.322674 559.146419,145.738404 C559.730689,131.715913 560.120203,119.056721 560.120203,107.566069 C558.172635,106.787042 556.03031,106.397528 553.693228,106.397528 L553.693228,106.397528 Z M574.921721,181.768414 C574.532207,183.521225 574.532207,185.274036 574.532207,187.221604 L574.532207,193.843336 C583.880534,195.011877 593.618374,195.790904 603.356215,196.180418 C602.966701,201.438851 602.577188,206.697285 602.187674,212.345233 C593.618374,212.345233 585.828102,212.734746 578.427343,213.12426 C577.648316,214.682315 577.453559,216.629883 577.453559,218.966964 C577.453559,221.304046 577.648316,223.446371 578.232586,225.004426 C580.180155,225.588696 592.255077,225.97821 614.457353,225.97821 C631.401196,225.97821 640.749523,225.588696 642.502334,225.004426 C642.891848,224.030641 643.281361,222.083073 643.281361,219.356478 C643.281361,216.629883 642.891848,214.682315 642.502334,213.708531 C636.075359,212.929503 627.700816,212.345233 617.183949,212.345233 C617.768219,207.281556 618.352489,202.217879 618.742003,196.959445 C628.479844,197.543715 638.217684,197.738472 648.345038,197.738472 C648.929309,193.259065 649.318822,188.974416 649.318822,185.079279 C638.801955,184.300252 628.869357,183.715982 619.52103,183.131711 C619.910544,179.626089 620.105301,175.925709 620.300058,172.22533 C619.131517,171.835816 616.989192,171.446303 613.873083,171.056789 C611.146487,171.056789 608.614649,171.251546 606.277567,171.446303 C605.693297,174.951925 605.303783,178.652305 604.91427,182.352684 C594.202645,181.96317 584.270048,181.768414 574.921721,181.768414 L574.921721,181.768414 Z" id="堂" fill="#FFFFFF" sketch:type="MSShapeGroup"></path>
    </g>
</svg>